# xmcd
#
# Track frame offsets:
#	150
#	49366
#	78647
#	136946
#	199183
#
# Disc length: 3237 seconds
#
# Revision: 1
# Processed by: cddbd v1.5.2PL0 Copyright (c) Steve Scherf et al.
# Submitted via: audiograbber 1.83.01
#
DISCID=440ca305
DTITLE=Grateful Dead - 95-05-21 Sam Boyd Silver Bowl, Las Vegas NV
DYEAR=1900
DGENRE=
TTITLE0=Samson and Delilah
TTITLE1=Unbroken Chain
TTITLE2=Eyes Of The World
TTITLE3=Corrina
TTITLE4=Drums
EXTD=
EXTT0=
EXTT1=
EXTT2=
EXTT3=
EXTT4=
PLAYORDER=
